<svg width="405" height="405" xmlns="http://www.w3.org/2000/svg" stroke="null" style="vector-effect: non-scaling-stroke;">
 <!-- Created with SVG Editor - http://github.com/mzalive/SVG Editor/ -->
 <g stroke="null">
  <title stroke="null">background</title>
  <rect stroke="null" fill="#ffffff" id="canvas_background" height="407" width="407" y="-1" x="-1"/>
  <g stroke="null" style="vector-effect: non-scaling-stroke;" display="none" overflow="visible" y="0" x="0" height="100%" width="100%" id="canvasGrid">
   <rect fill="url(#gridpattern)" stroke-width="0" y="0" x="0" height="100%" width="100%"/>
  </g>
 </g>
 <g stroke="null">
  <title stroke="null">Layer 1</title>
  <ellipse stroke="#bfbf00" ry="199.499983" rx="199.499983" id="svg_22" cy="202.749989" cx="202.749977" stroke-width="6.5" fill="#ffff00"/>
  <path id="svg_23" d="m254.673932,285.377935c-11.432057,-3.072043 -15.9968,-11.515074 -15.9968,-11.515074s-5.150485,1.912397 -5.150485,-3.458591s5.150485,3.458591 10.30097,-17.279392c0,0 14.279972,-2.692276 11.432057,-24.956108l-3.433657,0c0,0 8.574042,-23.803244 0,-31.866508c-8.584141,-8.063264 -12.007699,-13.434252 -30.882711,-17.279392s-11.9976,-3.078824 -25.722127,-2.685494c-13.724527,0.386548 -25.166683,5.370988 -25.166683,8.056483c0,0 -8.574042,0.386548 -11.9976,2.692276c-3.433657,2.305727 -9.149685,13.047704 -9.149685,15.73998s2.858014,20.737983 5.716028,24.576341l-3.40336,0.766315c-2.858014,22.263832 11.432057,24.956108 11.432057,24.956108c5.140386,20.737983 10.290871,11.908403 10.290871,17.279392s-5.150485,3.458591 -5.150485,3.458591s-4.564743,8.443031 -15.9968,11.515074c-11.432057,3.065261 -74.89411,19.571556 -80.054693,23.030147c-5.160584,3.465373 -4.574842,19.585119 -4.574842,19.585119l272.137483,0c0,0 0.59584,-16.119747 -4.564743,-19.585119c-5.170683,-3.458591 -68.632736,-19.964886 -80.064792,-23.030147zm-125.934405,-1.166427c-0.9998,-1.220679 -1.494651,-2.102281 -1.494651,-2.102281s-4.362764,1.620791 -4.362764,-2.92963s4.362764,2.92963 8.725527,-14.641369c0,0 12.108689,-2.278601 9.684931,-21.151657l-2.908509,0c0,0 1.444156,-4.007897 2.393461,-9.046589c-0.040396,-2.088718 0.060594,-4.313066 0.373663,-6.754425l0.383762,-2.888941c-0.212079,-3.336523 -1.080592,-6.367876 -3.150885,-8.314181c-7.271273,-6.829022 -10.179782,-11.386224 -26.166483,-14.641369c-15.986701,-3.255144 -10.179782,-2.610897 -21.803719,-2.278601c-11.634036,0.325514 -21.329067,4.550421 -21.329067,6.835803c0,0 -7.271273,0.325514 -10.179782,2.278601c-2.736826,1.8378 -7.119788,9.914627 -7.644935,12.783224l0,1.905616c0.474653,4.428353 2.605539,16.608018 4.736426,19.476614l-2.888311,0.651029c-2.413659,18.873056 9.684931,21.151657 9.684931,21.151657c4.362764,17.570999 8.725527,10.090948 8.725527,14.641369s-4.362764,2.92963 -4.362764,2.92963s-3.867913,7.168099 -13.562944,9.758652c-0.616038,0.162757 -1.40376,0.379767 -2.342966,0.623903l0,35.494638l5.806919,0c-0.292871,-8.666822 0.777622,-19.8496 7.533847,-24.372894c3.59524,-2.407451 15.380762,-6.367876 64.148784,-19.408799zm225.510446,-61.413725c-0.40396,-2.563426 -1.282572,-4.848809 -2.948905,-6.415347c-7.261174,-6.835803 -10.179782,-11.386224 -26.156384,-14.641369c-15.9968,-3.255144 -10.179782,-2.610897 -21.813818,-2.278601c-11.623937,0.325514 -21.318968,4.550421 -21.318968,6.835803c0,0 -7.261174,0.325514 -10.179782,2.278601c-2.736826,1.844582 -7.160184,9.982443 -7.655034,12.823913l0.333267,0l0.807919,6.191556c0.20198,1.566538 0.222178,2.956756 0.272673,4.3741c0.908909,4.516513 2.120788,9.155094 3.332667,10.775884l-2.888311,0.651029c-2.413659,18.873056 9.69503,21.151657 9.69503,21.151657c4.362764,17.570999 8.715428,10.090948 8.715428,14.641369s-4.362764,2.92963 -4.362764,2.92963s-0.535246,0.96298 -1.646135,2.292164c48.172182,12.884947 59.856714,16.818246 63.411558,19.218915c6.766323,4.523294 7.826717,15.69929 7.533847,24.372894l4.847515,0l0,-35.982909c-0.161584,-0.040689 -0.383762,-0.101723 -0.525147,-0.142413c-9.684931,-2.597334 -13.562944,-9.758652 -13.562944,-9.758652s-4.372863,1.620791 -4.372863,-2.92963s4.372863,2.92963 8.725527,-14.641369c0,0 8.119588,-1.552975 9.725327,-12.484835l0,-8.320963c-0.010099,-0.122068 -0.010099,-0.223791 -0.030297,-0.345859l-2.918608,0c0,0 2.171283,-6.03558 2.948905,-12.620466l0,-7.975104l0.030297,0z" stroke-opacity="null" stroke-width="1.5" stroke="#000" fill="#020202"/>
  <polyline stroke-linecap="round" id="svg_25" points="196.24998474121094,224.20310974121094 196.24998474121094,224.20310974121094 196.24998474121094,223.20310974121094 " fill-opacity="null" stroke-opacity="null" stroke-width="1.5" stroke="#000" fill="none"/>
  <polyline stroke-linecap="round" id="svg_26" points="331.24998474121094,218.20310974121094 331.24998474121094,218.20310974121094 330.24998474121094,218.20310974121094 " fill-opacity="null" stroke-opacity="null" stroke-width="1.5" stroke="#000" fill="none"/>
  <path stroke="#000" id="svg_29" d="m249.270197,148.466499c0,1.807849 -1.396216,3.272522 -3.119583,3.272522l-19.976963,0c-1.723358,0 -3.119578,-1.464668 -3.119578,-3.272522l0,-44.52255c0,-1.807709 1.396216,-3.272522 3.119578,-3.272522l19.976963,0c1.723366,0 3.119583,1.464812 3.119583,3.272522l0,44.52255zm-73.960238,0c0,1.807849 -1.396491,3.272522 -3.119583,3.272522l-19.977233,0c-1.723092,0 -3.119578,-1.464668 -3.119578,-3.272522l0,-44.52255c0,-1.807709 1.396486,-3.272522 3.119578,-3.272522l19.977233,0c1.723092,0 3.119583,1.464812 3.119583,3.272522l0,44.52255zm24.134877,-120.72748c-36.149322,0 -65.494193,30.505175 -65.944859,68.31107l11.444576,0c0.371104,-31.246988 24.625455,-56.458606 54.500283,-56.458606c29.874824,0 54.129188,25.211618 54.495953,56.458606l11.44431,0c-0.446074,-37.805895 -29.799578,-68.31107 -65.940268,-68.31107l0.000004,0zm-65.852082,102.941634l11.236908,0l0,-34.700159l-11.236908,0l0,34.700159zm120.255271,-34.704831l0,34.700308l11.651965,0l0,-34.700308l-11.651965,0z" stroke-opacity="null" stroke-width="1.5" fill="#020202"/>
  <path stroke="#000" id="svg_30" d="m307.941653,182.277153c-3.266126,-1.275211 -5.158286,-6.517881 -4.935095,-11.273859c-0.083613,-6.212197 0.305814,-12.749011 -1.712555,-18.461054c-1.150445,-4.26484 -3.11024,-8.030318 -3.928091,-12.474744c-1.017732,-6.895227 0.239384,-14.710269 4.027138,-19.339301c4.271695,-5.387191 11.093266,-6.08935 15.795554,-1.510565c3.316559,3.362296 5.709531,8.90788 5.62063,14.959416c0.389159,4.521839 -0.823401,8.775019 -2.249844,12.662277c-1.021988,3.129907 -2.215521,6.192673 -3.143132,9.357479c-0.244541,6.489023 -0.104292,13.037566 -0.767585,19.470775c-1.104923,4.984999 -5.268954,8.374304 -8.707021,6.609574l0,0.000003zm8.626326,-11.602483c-1.938354,-1.537772 -4.723758,-0.537987 -6.976812,-0.869046c-1.840447,0.541792 -5.110724,-1.111259 -6.089143,1.368386c2.237582,1.288267 4.86721,0.322562 7.249328,0.5357c1.906053,-0.269431 4.099009,0.255503 5.816626,-1.035043l0,0.000003zm-0.145168,-2.893642c0.28526,-3.906849 -3.912401,-1.913255 -5.617648,-2.494844c-2.257006,0.672368 -5.848828,-1.439225 -7.268306,1.562537c0.84114,3.016542 4.592398,0.895042 6.562252,1.564335c2.10065,-0.109557 4.279972,0.110811 6.3237,-0.632027l0.000002,0zm0.026135,-6.84514c0.554144,-7.610643 3.715838,-13.947467 5.546599,-20.909271c1.505235,-8.335279 -1.475838,-17.85795 -6.873039,-21.356746c-5.372084,-3.918585 -12.529439,-0.958331 -15.565381,6.720053c-2.925152,6.342544 -2.366908,14.960291 0.492062,21.128363c2.039947,5.390572 3.66751,11.448442 3.402386,17.721834c4.234452,0 8.468905,0 12.703361,0c0.098009,-1.101394 0.195985,-2.202862 0.294013,-3.304232zm-9.37437,-10.782218c-1.677707,-4.293402 -3.399998,-8.619888 -4.56827,-13.272882c1.050351,-2.001093 1.355904,-4.230099 1.682193,-6.581285c2.948023,-0.852261 -0.375249,4.944511 2.408103,5.075142c2.470649,1.582114 1.386812,-7.676921 3.439475,-4.339476c-1.473473,3.662821 2.894292,7.306636 3.054592,2.0668c-0.211741,-3.956324 2.639993,-3.215072 1.528161,0.374128c0.091767,1.846348 2.134252,2.375673 2.169222,3.860668c-1.470387,4.694119 -2.748468,9.540432 -4.489573,14.03425c-0.391904,-1.739884 1.541389,-6.100611 2.159153,-8.661031c1.192056,-2.213266 2.216404,-8.177833 -0.891213,-7.364801c-1.802692,4.138287 -4.227697,-2.608557 -5.992784,1.357371c-1.498375,0.65782 -3.854991,-3.819247 -4.289654,0.485537c1.128512,5.112981 3.476696,9.470539 4.705306,14.53074c-0.4169,-0.361766 -0.654293,-0.996453 -0.914711,-1.565164l0,0.000003zm-2.354846,-18.738449c-0.815826,-0.586018 0.343863,3.115385 -0.000017,0l0.000017,0zm4.876176,0.437188c-1.059027,-2.637867 -0.491053,3.200558 0,0zm4.726401,0c-1.059027,-2.637867 -0.49106,3.200558 0,0zm-22.0036,-19.491563c-1.871809,-2.795976 -3.940864,-5.419539 -5.568723,-8.501472c4.066747,4.954575 7.788975,10.534486 11.453896,16.128372c0.973198,1.968243 -1.697808,-1.838017 -2.194924,-2.476031c-1.243839,-1.695436 -2.471387,-3.416642 -3.69025,-5.150869l0.000002,0zm28.904498,7.993986c3.163815,-5.801954 6.115727,-11.884483 9.526785,-17.377377c-0.571175,2.364964 -2.409833,5.194817 -3.565912,7.630514c-1.930644,3.535137 -3.73529,7.272893 -5.94303,10.442489c-0.275549,0.428667 -0.687012,-0.586662 -0.017813,-0.695626l-0.000028,0l-0.000002,0zm-6.852897,-5.504233c1.093125,-4.601779 2.678722,-8.98213 4.447679,-13.100618c-0.041113,2.284731 -1.917222,6.615057 -2.818997,9.448035c-0.510128,1.140017 -0.940407,2.958105 -1.628682,3.652584zm-13.998519,-5.901611c-0.761463,-1.634717 -3.053668,-5.441105 -2.625679,-5.960194c2.209982,3.606381 4.457706,7.328727 6.045249,11.593583c-1.351953,-1.526082 -2.32474,-3.73025 -3.419572,-5.633389l0.000002,0zm8.75146,-1.286539c-0.154109,-1.535221 0.324292,-8.864027 0.590066,-3.887617c0.000944,3.117953 0.222072,6.628004 -0.367597,9.465926c-0.25251,-1.824559 -0.191247,-3.724038 -0.222469,-5.578309z" fill-opacity="null" stroke-opacity="null" stroke-width="1.5" fill="#020202"/>
  <path stroke="#000" id="svg_31" d="m89.948935,183.777154c-3.26613,-1.27521 -5.15829,-6.51788 -4.9351,-11.27386c-0.08361,-6.2122 0.30582,-12.74901 -1.71255,-18.46105c-1.15045,-4.26484 -3.11024,-8.03032 -3.92809,-12.47475c-1.01774,-6.89522 0.23938,-14.71027 4.02713,-19.3393c4.2717,-5.38719 11.09327,-6.08935 15.79556,-1.51056c3.31656,3.36229 5.70953,8.90788 5.62063,14.95941c0.38916,4.52184 -0.8234,8.77502 -2.24984,12.66228c-1.02199,3.12991 -2.21552,6.19267 -3.14314,9.35748c-0.24454,6.48902 -0.10429,13.03756 -0.76758,19.47077c-1.10492,4.985 -5.26896,8.37431 -8.70702,6.60958l0,0zm8.62632,-11.60248c-1.93835,-1.53778 -4.72376,-0.53799 -6.97681,-0.86905c-1.84045,0.54179 -5.11072,-1.11126 -6.08914,1.36839c2.23758,1.28826 4.86721,0.32256 7.24933,0.5357c1.90605,-0.26944 4.09901,0.2555 5.81662,-1.03505l0,0.00001zm-0.14517,-2.89365c0.28527,-3.90684 -3.9124,-1.91325 -5.61764,-2.49484c-2.25701,0.67237 -5.84883,-1.43923 -7.26831,1.56254c0.84114,3.01654 4.5924,0.89504 6.56225,1.56433c2.10065,-0.10956 4.27998,0.11081 6.3237,-0.63203l0,0zm0.02614,-6.84514c0.55414,-7.61064 3.71584,-13.94746 5.5466,-20.90927c1.50523,-8.33528 -1.47584,-17.85795 -6.87304,-21.35674c-5.37208,-3.91859 -12.52944,-0.95833 -15.56538,6.72005c-2.92515,6.34254 -2.36691,14.96029 0.49206,21.12836c2.03995,5.39057 3.66751,11.44845 3.40239,17.72184c4.23445,0 8.4689,0 12.70336,0c0.09801,-1.1014 0.19598,-2.20287 0.29401,-3.30424zm-9.37437,-10.78221c-1.67771,-4.29341 -3.4,-8.61989 -4.56827,-13.27289c1.05035,-2.00109 1.3559,-4.2301 1.68219,-6.58128c2.94802,-0.85226 -0.37525,4.94451 2.4081,5.07514c2.47065,1.58212 1.38682,-7.67692 3.43948,-4.33948c-1.47347,3.66283 2.89429,7.30664 3.05459,2.0668c-0.21174,-3.95632 2.64,-3.21507 1.52816,0.37413c0.09177,1.84635 2.13426,2.37568 2.16923,3.86067c-1.47039,4.69412 -2.74847,9.54043 -4.48958,14.03425c-0.3919,-1.73988 1.54139,-6.10061 2.15915,-8.66103c1.19206,-2.21327 2.21641,-8.17783 -0.89121,-7.3648c-1.80269,4.13829 -4.2277,-2.60856 -5.99278,1.35737c-1.49838,0.65782 -3.85499,-3.81925 -4.28966,0.48554c1.12852,5.11298 3.4767,9.47054 4.70531,14.53074c-0.4169,-0.36177 -0.65429,-0.99646 -0.91471,-1.56517l0,0.00001zm-2.35485,-18.73845c-0.81582,-0.58602 0.34387,3.11538 -0.00001,0l0.00001,0zm4.87618,0.43718c-1.05903,-2.63786 -0.49105,3.20056 0,0zm4.7264,0c-1.05903,-2.63786 -0.49106,3.20056 0,0zm-22.0036,-19.49156c-1.87181,-2.79597 -3.94086,-5.41954 -5.56872,-8.50147c4.06674,4.95457 7.78897,10.53449 11.45389,16.12837c0.9732,1.96824 -1.69781,-1.83802 -2.19492,-2.47603c-1.24384,-1.69543 -2.47139,-3.41664 -3.69025,-5.15087l0,0zm28.9045,7.99399c3.16381,-5.80196 6.11572,-11.88449 9.52678,-17.37738c-0.57117,2.36497 -2.40983,5.19482 -3.56591,7.63052c-1.93064,3.53513 -3.73529,7.27289 -5.94303,10.44248c-0.27555,0.42867 -0.68701,-0.58666 -0.01781,-0.69562l-0.00003,0l0,0zm-6.8529,-5.50424c1.09313,-4.60177 2.67872,-8.98212 4.44768,-13.10061c-0.04111,2.28473 -1.91722,6.61505 -2.819,9.44803c-0.51013,1.14002 -0.94041,2.95811 -1.62868,3.65258zm-13.99852,-5.90161c-0.76146,-1.63471 -3.05367,-5.4411 -2.62568,-5.96019c2.20998,3.60638 4.45771,7.32873 6.04525,11.59358c-1.35195,-1.52608 -2.32474,-3.73025 -3.41957,-5.63339l0,0zm8.75146,-1.28654c-0.15411,-1.53522 0.32429,-8.86402 0.59007,-3.88761c0.00094,3.11795 0.22207,6.628 -0.3676,9.46592c-0.25251,-1.82456 -0.19125,-3.72403 -0.22247,-5.57831z" fill-opacity="null" stroke-opacity="null" stroke-width="1.5" fill="#020202"/>
 </g>
</svg>